/* XPM */
static char *veyon_configurator[] = {
/* columns rows colors chars-per-pixel */
"32 32 24 1 ",
"  c gray33",
". c #555555",
"X c gray37",
"o c #676767",
"O c gray43",
"+ c gray58",
"@ c #959595",
"# c #B6B6B6",
"$ c #B7B7B7",
"% c #BBBBBB",
"& c #C5C5C5",
"* c #C6C6C6",
"= c gray78",
"- c gray79",
"; c gray84",
": c #D7D7D7",
"> c #D8D8D8",
", c gray95",
"< c #F3F3F3",
"1 c #F4F4F4",
"2 c gray96",
"3 c #F6F6F6",
"4 c white",
"5 c None",
/* pixels */
"55555555555555555555555555555555",
"55555555555555555555555555555555",
"55555555555555555555555555555555",
"55555555555555555555555555555555",
"55555555555555555555555555555555",
"555555555555555555    5555555555",
"55555555555555555      555555555",
"5555555555555555        55555555",
"55                            55",
"55                            55",
"5555555555555555        55555555",
"55555555555555555      555555555",
"555555555555555555    5555555555",
"55555555555555555555555555555555",
"55555555555555555555555555555555",
"55555555555555555555555555555555",
"555555    5555555555555555555555",
"5555        55555555555555555555",
"555  o=33-O  5555555555555555555",
"555 o,44443o 5555555555555555555",
"55  =3#@@#3=  555555555555555555",
"55  %X :: X%                  55",
"55  %X :: X%                  55",
"55  -3#@@#,&  555555555555555555",
"555 O34444,o 5555555555555555555",
"555  o=33=o  5555555555555555555",
"5555        55555555555555555555",
"555555    5555555555555555555555",
"55555555555555555555555555555555",
"55555555555555555555555555555555",
"55555555555555555555555555555555",
"55555555555555555555555555555555"
};
