/* XPM */
static char *veyon_master_32[] = {
/* columns rows colors chars-per-pixel */
"32 32 74 1 ",
"  c #535353",
". c gray33",
"X c #555555",
"o c #565656",
"O c gray34",
"+ c #585858",
"@ c #5B5B5B",
"# c gray38",
"$ c #626262",
"% c DimGray",
"& c #6A6A6A",
"* c gray42",
"= c #6C6C6C",
"- c gray43",
"; c gray44",
": c #717171",
"> c #747474",
", c gray46",
"< c #767676",
"1 c #777777",
"2 c #7C7C7C",
"3 c gray49",
"4 c #7E7E7E",
"5 c #808080",
"6 c #818181",
"7 c gray51",
"8 c gray54",
"9 c #8B8B8B",
"0 c gray55",
"q c #8D8D8D",
"w c #8E8E8E",
"e c #959595",
"r c gray59",
"t c #979797",
"y c #989898",
"u c #A2A2A2",
"i c gray64",
"p c #A4A4A4",
"a c gray66",
"s c #A9A9A9",
"d c #AAAAAA",
"f c gray67",
"g c #ACACAC",
"h c #AFAFAF",
"j c gray69",
"k c #B2B2B2",
"l c #CECECE",
"z c gray81",
"x c LightGray",
"c c gray83",
"v c gray84",
"b c #D7D7D7",
"n c gray85",
"m c #DADADA",
"M c gray86",
"N c gainsboro",
"B c #DDDDDD",
"V c #E1E1E1",
"C c #E4E4E4",
"Z c gray90",
"A c #E6E6E6",
"S c gray93",
"D c #EEEEEE",
"F c #EFEFEF",
"G c gray94",
"H c #F1F1F1",
"J c gray95",
"K c gray97",
"L c #F8F8F8",
"P c #F9F9F9",
"I c #FBFBFB",
"U c gray99",
"Y c white",
"T c None",
/* pixels */
"TTTTTTTTTTTT........TTTTTTTTTTTT",
"TTTTTTTTT..............TTTTTTTTT",
"TTTTTTT....1gvAIIAvf1....TTTTTTT",
"TTTTTT...eAUUUUUUUUUUAq...TTTTTT",
"TTTTT..=BUUUUUUUUUUUUUUB*..TTTTT",
"TTTT..2GUUUUUUUUUUUUUUUUG7..TTTT",
"TTT..7UUUUUUUUUUUUUUUUUUUU2..TTT",
"TT..*JUUUUUUUUUUUUUUUUUUUUG=..TT",
"TT..BUUUUUUUUUUUUUUUUUUUUUUB..TT",
"T. eUUUUUUUUUUUUUUUUUUUUUUUUq..T",
"T. AUUUUUUIzu7;$$;7uxIUUUUUUA..T",
"T.1UUUUUBt+..........+tBUUUUU,.T",
"..gUUUAq................7VUUUf. ",
"..vUUp.......+kGGk+.......yIUv..",
"..AM=........gUUUUg........=vA..",
"..k+.........DUUUUG..........k..",
"..k+.........DUUUUG.........+k..",
"..AB=........kUUUUk........=vA..",
"..vUIp. .....+kDDg+.......yIUx..",
"..gUUUVe................7BUUUf..",
"T.,UUUUUBy@..........@yBUUUUU,.T",
"T..AUUUUUUJxp7;$$;7pxIUUUUUUA..T",
"T..qUUUUUUUUUUUUUUUUUUUUUUUU9..T",
"TT..BUUUUUUUUUUUUUUUUUUUUUUM..TT",
"TT..*GUUUUUUUUUUUUUUUUUUUUG=..TT",
"TTT..2UUUUUUUUUUUUUUUUUUUU2..TTT",
"TTTT..2GUUUUUUUUUUUUUUUUJ7..TTTT",
"TTTTT..=BUUUUUUUUUUUUUUv=. TTTTT",
"TTTTTT...qAUUUUUUUUUUA9...TTTTTT",
"TTTTTTT....,gvAJIAvg,....TTTTTTT",
"TTTTTTTTT..............TTTTTTTTT",
"TTTTTTTTTTTT........TTTTTTTTTTTT"
};
